<?xml version="1.0" encoding="UTF-8"?>
<!DOCTYPE svg PUBLIC "-//W3C//DTD SVG 1.1//EN" "http://www.w3.org/Graphics/SVG/1.1/DTD/svg11.dtd">
<svg xmlns="http://www.w3.org/2000/svg" version="1.1" width="512px" height="512px" style="shape-rendering:geometricPrecision; text-rendering:geometricPrecision; image-rendering:optimizeQuality; fill-rule:evenodd; clip-rule:evenodd" xmlns:xlink="http://www.w3.org/1999/xlink">
<g><path style="opacity:0.997" fill="#fed1c7" d="M 233.5,9.5 C 321.834,4.43455 394,35.7679 450,103.5C 506.069,180.801 516.735,264.134 482,353.5C 441.042,440.091 372.875,489.257 277.5,501C 191.882,506.366 121.049,476.866 65,412.5C 12.1617,344.645 -3.1716,268.978 19,185.5C 43.5881,108.913 93.0881,55.4133 167.5,25C 189.026,17.1994 211.026,12.0328 233.5,9.5 Z"/></g>
<g><path style="opacity:1" fill="#3f3e51" d="M 306.5,101.5 C 311.179,101.334 315.845,101.501 320.5,102C 324.5,105.667 324.5,109.333 320.5,113C 301.462,113.123 283.795,118.123 267.5,128C 250.134,138.364 235.634,151.864 224,168.5C 216.506,182.826 208.506,196.826 200,210.5C 197.029,214.092 193.696,214.425 190,211.5C 189.333,209.167 189.333,206.833 190,204.5C 197.759,192.654 204.759,180.321 211,167.5C 233.747,132.238 265.58,110.238 306.5,101.5 Z"/></g>
<g><path style="opacity:1" fill="#3f3e51" d="M 229.5,111.5 C 236.162,110.997 238.662,113.997 237,120.5C 205.073,144.452 185.407,176.119 178,215.5C 171.767,220.4 168.267,218.9 167.5,211C 173.554,177.891 188.554,149.558 212.5,126C 218.064,120.927 223.731,116.094 229.5,111.5 Z"/></g>
<g><path style="opacity:1" fill="#403f51" d="M 188.5,118.5 C 193.651,118.814 196.151,121.481 196,126.5C 171.896,155.796 158.563,189.463 156,227.5C 152.763,233.734 149.096,234.067 145,228.5C 146.505,186.52 161.005,149.853 188.5,118.5 Z"/></g>
<g><path style="opacity:1" fill="#3f3e51" d="M 327.5,121.5 C 340.171,121.333 352.838,121.5 365.5,122C 369.01,125.048 369.343,128.381 366.5,132C 343.169,130.31 320.502,133.31 298.5,141C 289.643,145.205 281.309,150.205 273.5,156C 259.5,170.667 245.5,185.333 231.5,200C 222.667,203.167 219.833,200.333 223,191.5C 238.554,174.613 254.721,158.446 271.5,143C 288.462,131.183 307.129,124.016 327.5,121.5 Z"/></g>
<g><path style="opacity:1" fill="#413f52" d="M 143.5,140.5 C 148.094,140.115 150.761,142.115 151.5,146.5C 146.458,157.924 141.958,169.591 138,181.5C 132.879,200.213 131.212,219.213 133,238.5C 129.855,243.334 126.355,243.667 122.5,239.5C 118.235,204.083 125.235,171.083 143.5,140.5 Z"/></g>
<g><path style="opacity:1" fill="#403f51" d="M 350.5,141.5 C 369.353,140.687 388.02,142.187 406.5,146C 410.656,146.824 414.489,148.324 418,150.5C 419.123,153.956 418.29,156.79 415.5,159C 405.203,157.528 394.869,155.861 384.5,154C 348.734,149.158 316.068,156.825 286.5,177C 281.199,181.3 276.199,185.966 271.5,191C 264.257,191.414 262.091,188.248 265,181.5C 288.659,157.753 317.159,144.42 350.5,141.5 Z"/></g>
<g><path style="opacity:1" fill="#403f51" d="M 112.5,157.5 C 117.196,156.869 119.863,158.869 120.5,163.5C 109.535,190.667 107.535,218.5 114.5,247C 113.001,253.335 109.501,254.835 104,251.5C 96.0158,223.183 97.0158,195.183 107,167.5C 108.07,163.689 109.903,160.356 112.5,157.5 Z"/></g>
<g><path style="opacity:1" fill="#403f51" d="M 352.5,163.5 C 378.937,161.311 404.27,165.478 428.5,176C 433.107,181.14 432.107,184.64 425.5,186.5C 401.396,176.954 376.396,173.454 350.5,176C 341.321,177.217 332.321,178.884 323.5,181C 318.715,177.74 318.381,174.073 322.5,170C 332.52,167.255 342.52,165.088 352.5,163.5 Z"/></g>
<g><path style="opacity:1" fill="#414052" d="M 83.5,166.5 C 85.8568,166.337 88.1902,166.503 90.5,167C 91.5728,168.313 92.2395,169.813 92.5,171.5C 87.3263,198.307 87.3263,225.14 92.5,252C 92.7475,256.353 90.7475,258.853 86.5,259.5C 83.9682,259.136 82.1348,257.803 81,255.5C 75.1238,226.838 75.1238,198.171 81,169.5C 82.045,168.627 82.8783,167.627 83.5,166.5 Z"/></g>
<g><path style="opacity:1" fill="#434153" d="M 443.5,188.5 C 449.097,187.611 453.263,189.611 456,194.5C 455.591,201.483 452.091,203.316 445.5,200C 441.097,196.745 440.43,192.912 443.5,188.5 Z"/></g>
<g><path style="opacity:1" fill="#413f52" d="M 59.5,196.5 C 62.0991,196.549 64.2658,197.549 66,199.5C 65.4582,216.446 67.2915,233.112 71.5,249.5C 71.0537,255.333 68.0537,257 62.5,254.5C 59.4136,247.498 57.247,240.164 56,232.5C 54.8157,222.186 54.4824,211.853 55,201.5C 56.025,199.313 57.525,197.646 59.5,196.5 Z"/></g>
<g><path style="opacity:1" fill="#3f3e50" d="M 116.5,314.5 C 168.415,262.471 231.081,240.971 304.5,250C 334.745,254.97 363.745,263.97 391.5,277C 401.113,278.39 406.28,274.223 407,264.5C 408.189,253.113 407.023,242.113 403.5,231.5C 403.382,223.382 406.882,221.382 414,225.5C 419.139,241.979 419.806,258.646 416,275.5C 409.78,286.783 400.28,290.95 387.5,288C 342.173,264.81 294.173,255.81 243.5,261C 192.905,269.288 150.905,292.621 117.5,331C 111.171,331.668 108.671,328.834 110,322.5C 112.001,319.669 114.167,317.003 116.5,314.5 Z"/></g>
<g><path style="opacity:1" fill="#ea8a83" d="M 403.5,231.5 C 407.023,242.113 408.189,253.113 407,264.5C 406.28,274.223 401.113,278.39 391.5,277C 363.745,263.97 334.745,254.97 304.5,250C 231.081,240.971 168.415,262.471 116.5,314.5C 164.843,254.01 227.843,226.843 305.5,233C 334.913,236.527 362.58,245.361 388.5,259.5C 396.212,257.955 400.712,253.288 402,245.5C 403.122,240.898 403.622,236.232 403.5,231.5 Z"/></g>
<g><path style="opacity:1" fill="#3f3e50" d="M 415.5,319.5 C 420.634,326.274 418.968,330.607 410.5,332.5C 416.394,335.939 422.06,339.605 427.5,343.5C 430.831,347 433.998,350.666 437,354.5C 438.281,360.801 435.781,363.635 429.5,363C 424.262,357.258 418.596,352.091 412.5,347.5C 405.023,342.287 396.69,339.787 387.5,340C 382.833,342.333 378.167,344.667 373.5,347C 379.026,349.926 384.359,353.093 389.5,356.5C 392.129,359.631 394.962,362.631 398,365.5C 398.668,371.829 395.834,374.329 389.5,373C 385.851,368.504 381.518,365.004 376.5,362.5C 366.607,356.162 356.607,355.996 346.5,362C 343.167,364 339.833,366 336.5,368C 342.165,370.175 347.165,373.341 351.5,377.5C 356.287,381.37 356.621,385.537 352.5,390C 350.833,390.667 349.167,390.667 347.5,390C 345.63,387.96 343.63,386.127 341.5,384.5C 333.829,378.784 325.163,376.617 315.5,378C 308.36,380.408 301.36,383.074 294.5,386C 299.178,389.815 301.845,394.649 302.5,400.5C 300.367,404.065 297.367,405.065 293.5,403.5C 287.564,392.911 278.564,389.077 266.5,392C 260.484,392.907 254.484,393.907 248.5,395C 252.462,397.934 253.962,401.767 253,406.5C 251.136,409.207 248.636,410.041 245.5,409C 241.694,404.189 237.027,400.522 231.5,398C 219.93,395.84 208.263,394.173 196.5,393C 190.868,391.54 185.201,390.207 179.5,389C 162.157,381.994 144.823,374.994 127.5,368C 118.602,365.873 109.602,365.207 100.5,366C 97.8261,366.67 95.4927,367.837 93.5,369.5C 86.1129,372.555 82.9463,370.222 84,362.5C 90.9288,356.96 98.7622,353.126 107.5,351C 122.583,346.954 137.916,345.621 153.5,347C 173.411,350.849 193.411,354.182 213.5,357C 228.764,357.899 243.931,357.065 259,354.5C 261.502,354.338 263.669,355.005 265.5,356.5C 266.125,359.97 265.125,362.804 262.5,365C 241.278,368.799 219.945,369.466 198.5,367C 183.954,363.687 169.287,361.02 154.5,359C 148.5,358.333 142.5,358.333 136.5,359C 149.183,363.508 161.516,368.841 173.5,375C 182.248,378.271 191.248,380.437 200.5,381.5C 204.316,382.482 208.316,383.149 212.5,383.5C 249.502,385.945 284.835,379.445 318.5,364C 340.007,352.079 361.674,340.412 383.5,329C 393.742,324.307 404.408,321.141 415.5,319.5 Z"/></g>
<g><path style="opacity:1" fill="#eb8b84" d="M 415.5,319.5 C 426.683,319.68 436.517,323.347 445,330.5C 447.074,333.791 446.908,336.957 444.5,340C 438.742,341.253 433.075,342.42 427.5,343.5C 422.06,339.605 416.394,335.939 410.5,332.5C 418.968,330.607 420.634,326.274 415.5,319.5 Z"/></g>
<g><path style="opacity:1" fill="#e98a83" d="M 412.5,347.5 C 404.375,349.538 396.708,352.538 389.5,356.5C 384.359,353.093 379.026,349.926 373.5,347C 378.167,344.667 382.833,342.333 387.5,340C 396.69,339.787 405.023,342.287 412.5,347.5 Z"/></g>
<g><path style="opacity:1" fill="#454153" d="M 290.5,354.5 C 286.491,356.416 283.491,355.416 281.5,351.5C 282.02,343.457 285.854,341.124 293,344.5C 293.781,345.729 294.281,347.062 294.5,348.5C 293.568,350.765 292.235,352.765 290.5,354.5 Z"/></g>
<g><path style="opacity:1" fill="#e98a83" d="M 281.5,351.5 C 283.491,355.416 286.491,356.416 290.5,354.5C 276.492,368.584 259.492,377.084 239.5,380C 235.23,381.075 230.897,381.575 226.5,381.5C 217.833,381.5 209.167,381.5 200.5,381.5C 191.248,380.437 182.248,378.271 173.5,375C 161.516,368.841 149.183,363.508 136.5,359C 142.5,358.333 148.5,358.333 154.5,359C 169.287,361.02 183.954,363.687 198.5,367C 219.945,369.466 241.278,368.799 262.5,365C 265.125,362.804 266.125,359.97 265.5,356.5C 270.965,355.234 276.299,353.567 281.5,351.5 Z"/></g>
<g><path style="opacity:1" fill="#eb8a83" d="M 376.5,362.5 C 367.905,367.102 359.571,372.102 351.5,377.5C 347.165,373.341 342.165,370.175 336.5,368C 339.833,366 343.167,364 346.5,362C 356.607,355.996 366.607,356.162 376.5,362.5 Z"/></g>
<g><path style="opacity:1" fill="#eb8a84" d="M 293.5,403.5 C 248.955,416.874 204.955,415.374 161.5,399C 149.965,392.79 138.965,385.79 128.5,378C 117.599,371.977 105.932,369.143 93.5,369.5C 95.4927,367.837 97.8261,366.67 100.5,366C 109.602,365.207 118.602,365.873 127.5,368C 144.823,374.994 162.157,381.994 179.5,389C 185.201,390.207 190.868,391.54 196.5,393C 208.263,394.173 219.93,395.84 231.5,398C 237.027,400.522 241.694,404.189 245.5,409C 248.636,410.041 251.136,409.207 253,406.5C 253.962,401.767 252.462,397.934 248.5,395C 254.484,393.907 260.484,392.907 266.5,392C 278.564,389.077 287.564,392.911 293.5,403.5 Z"/></g>
<g><path style="opacity:1" fill="#ea8a83" d="M 341.5,384.5 C 328.883,390.638 315.883,395.971 302.5,400.5C 301.845,394.649 299.178,389.815 294.5,386C 301.36,383.074 308.36,380.408 315.5,378C 325.163,376.617 333.829,378.784 341.5,384.5 Z"/></g>
<g><path style="opacity:1" fill="#eaa69f" d="M 200.5,381.5 C 209.167,381.5 217.833,381.5 226.5,381.5C 221.833,382.167 217.167,382.833 212.5,383.5C 208.316,383.149 204.316,382.482 200.5,381.5 Z"/></g>
</svg>
